<?xml version="1.0" encoding="utf-8"?>
<!-- Svg Vector Icons : http://www.onlinewebfonts.com/icon -->
<!DOCTYPE svg PUBLIC "-//W3C//DTD SVG 1.1//EN" "http://www.w3.org/Graphics/SVG/1.1/DTD/svg11.dtd">
<svg version="1.1" xmlns="http://www.w3.org/2000/svg" xmlns:xlink="http://www.w3.org/1999/xlink" x="0px" y="0px" viewBox="0 0 1000 1000" enable-background="new 0 0 1000 1000" xml:space="preserve">
<metadata> Svg Vector Icons : http://www.onlinewebfonts.com/icon </metadata>
<g><g><path d="M831.7,588.7c32.7-55.6,36.5-125.4,9.5-177.5c-2.6-5.2-5.5-10.3-8.7-15.2c3.2-4.9,6.1-9.9,8.7-15.2c27-52.2,23.2-121.9-9.9-178.1c-31.9-55.7-90.6-93.8-149-96.6c-4.8-0.3-11.3-0.3-17.2,0.1c-2.6-5.2-5.6-10.3-8.8-15.3c-29.8-47.8-90.7-79.4-154.9-80.4V10C436.2,10.1,374,42.1,343.8,90.6c-3.2,5-6.2,10.1-8.8,15.3c-5.8-0.4-12.4-0.4-17.2-0.1c-58.5,2.8-117.2,40.9-149.1,96.6c-33,56.2-36.9,126-9.9,178.1c2.6,5.2,5.5,10.3,8.7,15.2c-3.2,4.9-6.1,9.9-8.7,15.2c-27,52.2-23.2,121.9,9.5,177.6c15.7,27.3,37.7,50.2,62.7,67c-40.1,74.3-70.5,227.8-70.5,227.8h108.9l55.3,106.5c0,0,140.4-198.6,174.8-207.3c33,5.8,175.7,207.7,175.7,207.7l55.3-106.5h108.9c0,0-30.4-153.4-70.5-227.8C793.9,639,816,616.1,831.7,588.7z M501.4,651v-0.2c-136.6-0.5-247.1-111.4-247.1-248c0-135.7,109.1-245.8,244.3-247.8v0.2c136.5,0.5,247.1,111.3,247.1,248C745.7,538.9,636.7,649,501.4,651z"/></g><g></g><g></g><g></g><g></g><g></g><g></g><g></g><g></g><g></g><g></g><g></g><g></g><g></g><g></g><g></g></g>
</svg>