<?xml version="1.0" encoding="iso-8859-1"?>
<!-- Generator: Adobe Illustrator 16.0.0, SVG Export Plug-In . SVG Version: 6.00 Build 0)  -->
<!DOCTYPE svg PUBLIC "-//W3C//DTD SVG 1.1//EN" "http://www.w3.org/Graphics/SVG/1.1/DTD/svg11.dtd">
<svg version="1.1" id="Capa_1" xmlns="http://www.w3.org/2000/svg" xmlns:xlink="http://www.w3.org/1999/xlink" x="0px" y="0px"
	 width="451.558px" height="451.558px" viewBox="0 0 451.558 451.558" style="enable-background:new 0 0 451.558 451.558;"
	 xml:space="preserve">
<g>
	<path d="M399.394,127.428c-12.936-9.172-26.308-14.021-38.67-14.021c-4.479,0-8.795,0.639-12.859,1.901
		c-1.51-10.727-5.82-20.892-12.528-29.506c-11.927-15.31-29.885-24.091-49.271-24.091c-16.679,0-32.818,6.814-44.574,18.759
		c-11.992-16.434-31.147-26.191-51.607-26.191c-17.386,0-33.526,6.777-45.579,19.111c-9.202-4.705-19.526-7.187-29.934-7.187
		c-36.298,0-65.828,29.529-65.828,65.826c0,3.109,0.224,6.244,0.664,9.332c-12.081,8.439-20.368,20.949-23.423,35.37
		c-11.667,9.144-25.419,22.485-25.777,34.783c-0.158,5.455,2.221,10.208,7.071,14.126c2.999,2.421,5.96,3.648,8.803,3.648
		c6.622,0,11.247-6.39,15.153-13.919c8.452,16.2,24.347,27.687,42.358,30.511c-0.104,1.357-0.156,2.722-0.156,4.07
		c0,19.92,11.424,38.475,29.18,47.537v83.438c0,9.016,7.335,16.352,16.35,16.352c9.016,0,16.351-7.335,16.351-16.352v-65.28
		c10.964,10.152,25.17,15.703,40.388,15.703c13.021,0,25.352-4.107,35.719-11.887c6.878,2.496,14.116,3.76,21.527,3.76
		c14.812,0,29.02-5.139,40.364-14.541v72.245c0,9.016,7.334,16.352,16.351,16.352c9.016,0,16.351-7.335,16.351-16.352v-91.212
		c20.53-1.174,39.215-12.771,49.351-30.629c19.609,10.224,39.69,16.067,55.293,16.067c6.271,0,11.942-0.914,16.854-2.717
		c9.712-3.563,16.569-10.552,19.83-20.208C462.65,206.3,435.043,152.707,399.394,127.428z M232.751,305.014
		c-6.714,0-13.179-1.446-19.217-4.297L208,298.104l-4.51,4.14c-7.655,7.026-17.594,10.896-27.984,10.896
		c-15.887,0-30.126-8.866-37.158-23.139l-2.735-5.551l-6.167,0.499c-1.085,0.087-2.024,0.129-2.869,0.129
		c-19.368,0-35.125-15.757-35.125-35.125c0-3.366,0.484-6.716,1.439-9.955l3.577-12.124l-12.988,0.461
		c-0.377,0.014-0.754,0.027-1.135,0.027c-21.841,0-39.609-17.77-39.609-39.612c0-14.619,8.014-28,20.915-34.922l6.246-3.353
		l-1.717-6.877c-0.943-3.779-1.422-7.671-1.422-11.568c0-26.255,21.36-47.615,47.615-47.615c9.586,0,18.828,2.838,26.728,8.208
		l7.148,4.859l5.226-6.886c8.729-11.505,22.001-18.104,36.411-18.104c18.36,0,34.868,10.919,42.058,27.818l6.994,16.442
		l9.192-15.322c8.08-13.465,22.263-21.504,37.937-21.504c13.73,0,26.452,6.222,34.901,17.07c3.717,4.772,6.354,10.086,7.856,15.827
		c-6.143-1.8-12.461-2.712-18.818-2.712c-9.466,0-18.837,2.089-27.1,6.041c-14.359,6.867-24.863,18.353-29.577,32.343
		c-4.354,12.929-3.251,26.855,3.104,39.212c7.46,14.507,21.596,23.52,36.893,23.52c6.743,0,13.238-1.705,19.308-5.067
		c11.468-6.351,17.229-16.058,17.123-28.851c-0.088-10.937-4.694-19.148-13.692-24.405c-0.563-0.33-1.205-0.503-1.856-0.503
		c-1.29,0-2.463,0.656-3.136,1.753c-1.04,1.689-0.53,3.94,1.137,5.018c3.974,2.567,6.563,7.375,7.295,13.537
		c0.944,7.967-1.935,14.484-8.326,18.847c-8.562,5.844-17.863,6.308-26.747,1.325c-8.451-4.738-13.96-16.531-12.541-26.846
		c1.886-13.687,10.321-23.025,23.752-26.292c3.388-0.821,6.69-1.237,9.817-1.237c8.022,0,19.303,2.34,27.478,13.486
		c3.448,4.703,10.032,10.195,17.238,10.195c3.694,0,9.045-1.508,13.543-8.693c3.75-5.988,2.555-13.196-3.364-20.299
		c10.906-0.17,21.991,6.487,27.558,10.434c29.081,20.622,52.806,65.578,40.422,102.25c-1.441,4.272-3.907,6.779-7.758,7.893
		c-2.822,0.814-6.01,1.229-9.473,1.229c-26.602,0-62.665-24.074-63.026-24.316l-1.783-1.201l-0.515,2.086
		c-0.016,0.066-1.64,6.681-3.118,11.078c-5.823,17.324-22.026,28.965-40.32,28.965c-5.165,0-10.23-0.926-15.056-2.753l-8.812-3.335
		l-3.034,8.921C269.22,292.729,252.064,305.014,232.751,305.014z"/>
</g>
<g>
</g>
<g>
</g>
<g>
</g>
<g>
</g>
<g>
</g>
<g>
</g>
<g>
</g>
<g>
</g>
<g>
</g>
<g>
</g>
<g>
</g>
<g>
</g>
<g>
</g>
<g>
</g>
<g>
</g>
</svg>
