<?xml version="1.0" encoding="utf-8"?>
<!-- Svg Vector Icons : http://www.onlinewebfonts.com/icon -->
<!DOCTYPE svg PUBLIC "-//W3C//DTD SVG 1.1//EN" "http://www.w3.org/Graphics/SVG/1.1/DTD/svg11.dtd">
<svg version="1.1" xmlns="http://www.w3.org/2000/svg" xmlns:xlink="http://www.w3.org/1999/xlink" x="0px" y="0px" viewBox="0 0 1000 1000" enable-background="new 0 0 1000 1000" xml:space="preserve">
<metadata> Svg Vector Icons : http://www.onlinewebfonts.com/icon </metadata>
<g><g transform="translate(0.000000,511.000000) scale(0.100000,-0.100000)"><path d="M4874.7,4440.4l-67.5-59.3l-6.1-568.3l-6.1-568.3l-94-132.9c-425.2-601-1042.5-1132.4-1690.5-1451.3c-580.5-286.2-1132.4-427.2-1811.1-462c-278-16.3-327.1-32.7-365.9-128.8c-22.5-51.1-18.4-96.1,26.6-292.3c292.3-1316.4,386.3-2702.3,237.1-3532.2c-77.7-429.3-214.6-764.5-398.6-981.2c-51.1-59.3-92-116.5-92-126.7s-81.8-18.4-184-18.4c-171.7,0-188.1-4.1-245.3-55.2c-38.8-36.8-67.5-83.8-73.6-130.8c-10.2-63.4-2-85.9,49.1-143.1l61.3-69.5h4785.2h4785.2l55.2,57.2c83.8,81.8,79.7,202.4-10.2,282.1l-65.4,59.3h-304.6h-302.5l-12.3,59.3c-6.1,32.7-49.1,100.2-92,151.3c-380.2,437.4-509,1291.9-382.2,2518.3c59.3,574.4,190.1,1283.7,349.5,1884.7c65.4,251.4,69.5,275.9,40.9,341.4c-16.3,38.8-47,79.7-67.5,89.9s-151.3,24.5-292.3,32.7c-1020,57.2-1884.6,384.3-2647.1,999.6c-204.4,165.6-600.9,570.3-742,758.4l-106.3,141v394.5v392.5l245.3,8.2c235.1,6.1,247.3,8.2,300.5,61.3c83.8,83.8,79.7,204.4-10.2,284.1c-65.4,57.2-71.5,59.3-300.5,59.3c-233,0-235.1,0-247.3,51.1c-18.4,71.5-120.6,153.3-194.2,153.3C4962.7,4499.7,4915.6,4477.2,4874.7,4440.4z M5207.9,2445.4c811.5-940.3,1968.5-1522.8,3254.2-1637.3c128.8-10.2,157.4-18.4,149.2-42.9c-6.1-16.3-12.3-40.9-12.3-55.2c0-57.2-310.7-388.4-427.2-457.9c-116.5-67.5-261.6-71.5-380.2-10.2c-47,24.5-157.4,122.6-247.3,218.7c-149.2,157.4-173.8,175.8-239.2,175.8c-116.5,0-171.7-32.7-316.8-179.9c-167.6-171.7-298.4-239.2-453.8-237.1c-151.3,0-255.5,57.2-453.8,247.3L5919.3,620l-179.9-8.2l-181.9-6.1l-102.2-96.1c-226.9-212.6-412.9-286.2-609.1-243.2C4713.3,297,4498.6,434,4445.5,526c-45,77.7-136.9,120.6-214.6,100.2c-28.6-6.1-124.7-79.7-208.5-163.5c-194.2-186-300.5-245.3-451.7-245.3c-157.4,2-286.2,69.5-457.9,243.2l-139,145.1l-151.3,6.1c-83.8,6.1-175.8,2-206.5-6.1c-28.6-6.1-118.6-79.7-198.3-163.5c-171.7-177.8-239.2-202.4-502.9-190.1c-363.8,18.4-629.6,228.9-633.7,498.8c0,40.9,14.3,45,159.4,57.2c1187.6,106.3,2224,588.7,3049.8,1422.7c118.5,118.6,269.8,288.2,337.3,374.1l122.6,157.4l40.9-57.2C5013.7,2674.3,5111.9,2557.8,5207.9,2445.4z M5126.2-998.9c200.3-1263.3,504.9-2326.2,801.3-2794.3l55.2-87.9H4970.8H3957l73.6,128.8c357.7,615.3,709.3,1854,909.6,3203.1c24.5,163.5,49.1,310.7,55.2,327.1c6.1,16.3,24.5-61.3,38.8-173.8C5050.6-508.3,5091.4-780.2,5126.2-998.9z M3296.7-1172.7c120.6-49.1,136.9-122.7,96.1-423.1c-30.7-222.8-40.9-257.5-87.9-306.6c-104.2-102.2-224.9-92-312.7,28.6c-40.9,55.2-40.9,65.4-16.4,306.6c30.7,273.9,55.2,347.5,141,392.5C3186.3-1135.9,3208.8-1135.9,3296.7-1172.7z M6602-1199.2c61.3-55.2,71.5-83.8,106.3-343.4c38.8-280,28.6-333.2-75.6-396.6c-81.8-49.1-102.2-51.1-188.1-10.2c-96.1,47-114.5,94-151.3,380.2c-32.7,259.6-32.7,263.7,8.2,318.9C6385.3-1140,6512.1-1117.5,6602-1199.2z M3145.5-2431.8c57.2-55.2,61.3-69.5,51.1-157.4c-6.1-53.1-38.8-177.8-73.6-280c-89.9-267.8-194.2-347.5-349.5-265.7c-124.7,65.4-128.8,132.9-28.6,451.7c83.8,263.7,124.7,314.8,257.6,314.8C3065.7-2368.5,3096.4-2382.8,3145.5-2431.8z M6826.9-2417.5c28.6-26.6,63.4-87.9,75.6-136.9c12.3-49.1,45-153.3,71.5-233c67.5-190.1,65.4-224.8-20.4-310.7c-65.4-65.4-79.7-71.5-159.4-61.3c-57.2,8.2-100.2,28.6-130.8,63.4c-53.1,63.4-173.7,419-175.8,527.4C6481.4-2397.1,6700.1-2301,6826.9-2417.5z"/></g></g>
</svg>